<svg width="448" height="224" viewBox="0 0 448 224" fill="none" xmlns="http://www.w3.org/2000/svg">
<rect width="448" height="224" fill="black"/>
<path fill-rule="evenodd" clip-rule="evenodd" d="M218.213 143.441H197.084L200.744 122.87H221.874L218.213 143.441ZM91.6162 103.474L89.7727 114.469H102.008L100.54 122.695C100.31 123.992 99.418 128.469 98.2118 129.485C97.1286 130.237 95.8137 130.597 94.4905 130.505H88.1451C84.5928 130.505 81.482 129.675 79.7921 126.069C78.1343 122.277 79.4064 114.595 80.0307 111.083C80.6751 107.477 81.9099 101.047 84.7924 97.4408C86.2595 95.6646 88.1327 94.253 90.2603 93.3209C92.3876 92.3889 94.7091 91.9626 97.0361 92.0769H121.043L129.476 78.7209H89.8926C88.1216 78.7209 79.4267 78.8122 72.6824 83.1568C63.1079 89.2596 60.146 101.186 58.319 111.451C56.8051 119.956 55.374 131.7 61.4366 137.977C64.9771 141.676 71.5676 143.434 76.8859 143.434H107.769C110.407 143.455 112.987 142.68 115.161 141.216C117.593 139.384 119.207 136.7 119.666 133.725L123.094 114.468L123.307 113.255L124.56 106.23L125.049 103.474H91.6162ZM162.847 103.474L161.005 114.469H173.239L171.775 122.693C171.546 123.99 170.654 128.468 169.448 129.484C168.364 130.235 167.05 130.595 165.727 130.503H159.376C155.824 130.503 152.712 129.673 151.021 126.067C149.362 122.275 150.638 114.594 151.262 111.081C151.903 107.475 153.14 101.045 156.023 97.4392C157.489 95.6629 159.362 94.2514 161.49 93.3193C163.617 92.3873 165.939 91.9611 168.266 92.0752H192.275L200.709 78.7192H161.126C159.353 78.7192 150.66 78.8106 143.914 83.1552C134.337 89.258 131.377 101.185 129.55 111.449C128.036 119.956 126.6 131.703 132.666 137.982C136.207 141.681 142.797 143.439 148.117 143.439H179.001C181.638 143.46 184.218 142.685 186.393 141.221C188.823 139.389 190.438 136.704 190.898 133.73L194.327 114.472L194.54 113.261L195.791 106.233L196.28 103.477H162.847V103.474Z" fill="#FF7D02"/>
<path fill-rule="evenodd" clip-rule="evenodd" d="M278.551 143.437C275.844 143.437 273.171 143.252 271.014 141.219C268.477 138.729 268.933 136.134 269.478 133.085L277.373 88.7036C277.713 85.8068 279.19 83.1539 281.489 81.3076C283.898 79.5202 286.863 78.6053 289.881 78.7177H332.269L323.838 92.0588H302.153C300.941 92.0145 299.744 92.3366 298.724 92.9818C297.801 93.7875 297.232 94.9148 297.141 96.1245L295.828 103.471H321.913L319.96 114.466H293.877L291.598 127.264C291.471 127.674 291.45 128.109 291.539 128.529C291.627 128.949 291.822 129.34 292.106 129.666C293.237 130.42 294.62 130.718 295.969 130.496H326.248L323.946 143.434H278.551V143.437ZM340.618 143.437L349.773 91.9874H334.018L336.377 78.7061H392L383.581 91.9874H370.856L361.703 143.431H340.618V143.437ZM263.698 106.914C266.57 104.266 268.368 100.687 268.756 96.8384C269.512 92.5834 270.099 86.6666 267.116 82.9661C264.174 79.2041 258.721 78.7426 254.142 78.7144H208.62L206.771 89.1303C206.771 89.1419 206.771 89.1518 206.771 89.1651L202.268 114.466H240.298C241.157 114.337 242.036 114.441 242.839 114.766C243.642 115.091 244.339 115.626 244.856 116.312C245.265 117.124 245.392 118.044 245.219 118.934C245.219 118.934 244.077 125.408 244.074 125.426C243.793 126.83 243.143 128.138 242.188 129.22C241.733 129.681 240.371 130.515 236.359 130.515H230.208L222.089 143.436H243.403C248.998 143.436 253.851 143.436 258.853 138.907C263.622 134.652 264.453 129.472 265.192 125.314C265.901 121.337 266.545 117.179 263.685 113.858C261.827 111.888 259.266 110.695 256.536 110.528L256.602 110.16C259.294 109.973 261.824 108.821 263.706 106.922L263.698 106.914ZM248.007 96.0431C248.007 96.088 247.982 96.1461 247.971 96.1942L247.528 98.643L247.469 98.975C247.459 99.0199 247.451 99.0646 247.437 99.1111C247.24 100.039 246.868 100.923 246.339 101.716C245.653 102.403 244.81 102.921 243.881 103.226C242.951 103.532 241.96 103.617 240.99 103.474H225.313L225.795 100.765L226.253 98.1997C226.297 97.9457 226.336 97.7017 226.385 97.4559L226.735 95.4953C226.744 94.9668 226.866 94.4462 227.096 93.9681C227.326 93.49 227.657 93.0655 228.067 92.7229C228.882 92.1313 229.896 91.866 230.904 91.9807H242.939C244.339 91.9807 246.391 91.9807 247.469 93.2773C248.013 94.0968 248.204 95.0942 248 96.0515L248.007 96.0431Z" fill="white"/>
</svg>
